<svg width="20" height="20" viewBox="0 0 20 20" fill="none" xmlns="http://www.w3.org/2000/svg">
<path d="M10 0.555664C15.216 0.555665 19.4443 4.78398 19.4443 10C19.4443 15.216 15.216 19.4443 10 19.4443C4.78398 19.4443 0.555665 15.216 0.555664 10C0.555664 4.78398 4.78398 0.555664 10 0.555664Z" fill="white"/>
<path d="M10 0.555664C15.216 0.555665 19.4443 4.78398 19.4443 10C19.4443 15.216 15.216 19.4443 10 19.4443C4.78398 19.4443 0.555665 15.216 0.555664 10C0.555664 4.78398 4.78398 0.555664 10 0.555664Z" stroke="#222326" stroke-width="1.11111"/>
<path d="M4.44446 9.99989C4.44446 6.93164 6.93176 4.44434 10 4.44434C13.0683 4.44434 15.5556 6.93164 15.5556 9.99989C15.5556 13.0681 13.0683 15.5554 10 15.5554C6.93176 15.5554 4.44446 13.0681 4.44446 9.99989Z" fill="#222326"/>
</svg>
