<svg width="20" height="20" viewBox="0 0 20 20" fill="none" xmlns="http://www.w3.org/2000/svg">
<g clip-path="url(#clip0_37_6746)">
<path d="M10 0C15.5228 0 20 4.47715 20 10C20 15.5228 15.5228 20 10 20C4.47715 20 0 15.5228 0 10C0 4.47715 4.47715 0 10 0ZM6.5918 5.27246C6.22363 4.97224 5.68013 4.99385 5.33691 5.33691C4.9937 5.68012 4.9722 6.22357 5.27246 6.5918L5.33691 6.66309L8.67383 10L5.33691 13.3369C4.9708 13.703 4.9708 14.297 5.33691 14.6631C5.70304 15.0291 6.297 15.0292 6.66309 14.6631L10 11.3262L13.3369 14.6631L13.4082 14.7275C13.7764 15.0277 14.3199 15.0063 14.6631 14.6631C15.0061 14.3199 15.0277 13.7764 14.7275 13.4082L14.6631 13.3369L11.3262 10L14.6631 6.66309L14.7275 6.5918C15.0276 6.22361 15.0062 5.68008 14.6631 5.33691C14.3199 4.99376 13.7764 4.97235 13.4082 5.27246L13.3369 5.33691L10 8.67383L6.66309 5.33691L6.5918 5.27246Z" fill="#B8BAC3"/>
</g>
<defs>
<clipPath id="clip0_37_6746">
<rect width="20" height="20" rx="10" fill="white"/>
</clipPath>
</defs>
</svg>
